<svg xmlns="http://www.w3.org/2000/svg" width="141" height="151" viewBox="0 0 141 151" fill="none">
  <g clip-path="url(#clip0_58_5811)">
    <path d="M67.6363 126.381C68.1562 136.065 66.9439 144.538 66.3839 147.8L3.55217 84.7517C6.80181 84.1893 15.2467 82.9686 24.8991 83.4885C35.718 84.0712 47.9484 86.8351 56.1233 95.0465L56.1235 95.0466C64.2988 103.25 67.0535 115.524 67.6363 126.381Z" fill="#FFDEFC" stroke="black"/>
    <path d="M1.54738 106.847C1.02568 97.1633 2.23775 88.6907 2.7977 85.428L65.6319 148.479C62.3719 149.043 53.9376 150.259 44.2993 149.74C33.4803 149.157 21.2499 146.393 13.075 138.182L13.0747 138.181C4.89107 129.978 2.13229 117.704 1.54738 106.847Z" fill="#1C5CFF" stroke="black"/>
    <path d="M56.6917 12.7819C65.469 21.5895 67.9959 35.0887 68.298 46.4822C68.4486 52.1658 68.0449 57.2954 67.6032 61.0046C67.3825 62.8586 67.1524 64.3565 66.9777 65.3896C66.8904 65.9061 66.8169 66.3064 66.7655 66.5768C66.7597 66.6071 66.7542 66.6357 66.749 66.6627C66.7225 66.6678 66.6943 66.6733 66.6646 66.679C66.3951 66.7306 65.9962 66.8043 65.4815 66.8919C64.452 67.0672 62.9594 67.298 61.1118 67.5196C57.4156 67.9628 52.3039 68.3679 46.6401 68.2167C35.2866 67.9136 21.8349 65.3782 13.058 56.571C4.2807 47.7634 1.75373 34.2642 1.4517 22.8707C1.30104 17.1871 1.70476 12.0575 2.14644 8.34838C2.36721 6.49432 2.59731 4.99647 2.77197 3.96335C2.8593 3.44682 2.93275 3.04655 2.98422 2.7761C2.98998 2.74586 2.99546 2.71724 3.00065 2.69026C3.02722 2.68511 3.05539 2.67968 3.08513 2.67398C3.35461 2.62233 3.75348 2.54864 4.2682 2.46102C5.2977 2.28577 6.79031 2.05488 8.6379 1.83336C12.3341 1.39018 17.4458 0.985081 23.1095 1.13626C34.4631 1.43931 47.9148 3.97475 56.6917 12.7819Z" fill="#E3FC87" stroke="black"/>
    <path d="M138.835 84.3014C138.865 84.3071 138.893 84.3125 138.92 84.3177C138.925 84.3447 138.93 84.3733 138.936 84.4035C138.988 84.674 139.061 85.0742 139.148 85.5908C139.323 86.6239 139.553 88.1217 139.774 89.9758C140.216 93.6849 140.619 98.8145 140.469 104.498C140.167 115.892 137.64 129.391 128.862 138.198C120.086 147.006 106.634 149.541 95.2803 149.844C89.6166 149.995 84.5049 149.59 80.8087 149.147C78.9611 148.925 77.4685 148.695 76.439 148.519C75.9243 148.432 75.5254 148.358 75.2559 148.306C75.2262 148.301 75.198 148.295 75.1714 148.29C75.1662 148.263 75.1608 148.234 75.155 148.204C75.1035 147.934 75.0301 147.534 74.9427 147.017C74.7681 145.984 74.538 144.486 74.3172 142.632C73.8755 138.923 73.4718 133.793 73.6225 128.11C73.9245 116.716 76.4515 103.217 85.2288 94.4093C94.0056 85.6022 107.457 83.0667 118.811 82.7637C124.475 82.6125 129.586 83.0176 133.283 83.4608C135.13 83.6823 136.623 83.9132 137.652 84.0884C138.167 84.176 138.566 84.2497 138.835 84.3014Z" fill="#E3FC87" stroke="black"/>
    <path d="M85.2287 12.782L85.2289 12.7818C93.4038 4.57046 105.634 1.80659 116.453 1.22388C126.106 0.704006 134.55 1.92465 137.8 2.4871L74.9683 65.5357C74.4083 62.273 73.196 53.8003 73.7159 44.1164C74.2987 33.2593 77.0534 20.9856 85.2287 12.782Z" fill="#FFDEFC" stroke="black"/>
    <path d="M128.277 55.9338L128.277 55.934C120.102 64.1454 107.872 66.9093 97.053 67.492C87.4006 68.0119 78.9557 66.7912 75.7061 66.2288L138.538 3.18019C139.098 6.4429 140.31 14.9155 139.79 24.5994C139.207 35.4566 136.453 47.7303 128.277 55.9338Z" fill="#1C5CFF" stroke="black"/>
  </g>
  <defs>
    <clipPath id="clip0_58_5811">
      <rect width="140.079" height="149.77" fill="white" transform="translate(0.920654 0.605103)"/>
    </clipPath>
  </defs>
</svg>